External Loads File
version=1
nRows=62
nColumns=13
Range=5.000000e-03-10 seconds
endheader
time 	forceRightX 	forceRightY 	forceRightZ 	pointRightX 	pointRightY 	pointRightZ 	forceLeftX 	forceLeftY 	forceLeftZ 	pointLeftX 	pointLeftY 	pointLeftZ 		
7.505000 35.670207 977.583718 -0.000000 0.347399 0.183251 -0.148928 -22.851999 -22.978148 -0.000000 0.178461 0.470187 -0.379210
7.510000 52.558767 970.746496 -0.000000 0.340078 0.177250 -0.148872 -33.917530 -26.761141 -0.000000 0.186527 0.476659 -0.378894
7.515000 68.542774 957.753740 -0.000000 0.332613 0.171706 -0.148840 -44.314600 -27.371884 -0.000000 0.194920 0.482825 -0.378889
7.520000 82.983928 938.177010 -0.000000 0.324898 0.166821 -0.148631 -53.621639 -24.316836 -0.000000 0.203393 0.488587 -0.378730
7.525000 95.876431 911.637434 -0.000000 0.317061 0.162486 -0.148598 -61.471068 -17.442712 -0.000000 0.212035 0.493681 -0.378594
7.530000 108.193136 877.699776 -0.000000 0.308775 0.158859 -0.147857 -67.616780 -6.867894 -0.000000 0.220815 0.498132 -0.378532
7.535000 118.395685 836.317981 -0.000000 0.300654 0.155745 -0.147641 -71.891921 6.794414 -0.000000 0.229617 0.501962 -0.378439
7.540000 127.349135 787.382777 -0.000000 0.292346 0.153438 -0.147393 -74.274662 22.886577 -0.000000 0.238469 0.505153 -0.378459
7.545000 134.274036 731.310868 -0.000000 0.284023 0.151626 -0.147186 -74.866851 40.534114 -0.000000 0.247205 0.507418 -0.378689
7.550000 138.975525 668.789888 -0.000000 0.275706 0.150581 -0.146978 -73.907920 58.919317 -0.000000 0.255801 0.509229 -0.378841
7.555000 141.543828 600.791449 -0.000000 0.267435 0.150227 -0.146796 -71.771985 77.394670 -0.000000 0.264466 0.510380 -0.378834
7.560000 141.175042 528.853075 -0.000000 0.259229 0.150543 -0.146678 -69.139767 95.507642 -0.000000 0.272801 0.510684 -0.379039
7.565000 138.118913 454.658764 -0.000000 0.251128 0.151599 -0.146631 -66.762929 113.267105 -0.000000 0.280962 0.510322 -0.379178
7.570000 132.452127 380.284478 -0.000000 0.243109 0.153631 -0.146669 -65.517846 130.943002 -0.000000 0.288787 0.509069 -0.379520
7.575000 124.637478 307.955511 -0.000000 0.235218 0.155985 -0.146820 -66.197760 149.096525 -0.000000 0.296340 0.505961 -0.380042
7.580000 115.010733 240.059196 -0.000000 0.227399 0.159179 -0.147042 -69.616982 168.397976 -0.000000 0.303533 0.502702 -0.380608
7.585000 104.438192 178.658019 -0.000000 0.219734 0.162902 -0.147269 -76.275437 189.603595 -0.000000 0.310516 0.498597 -0.381257
7.590000 93.855779 125.363845 -0.000000 0.211866 0.167127 -0.147627 -86.352190 213.380248 -0.000000 0.317168 0.493816 -0.381997
7.595000 84.025345 81.278771 -0.000000 0.204011 0.171873 -0.147912 -99.924498 240.047438 -0.000000 0.323500 0.488397 -0.382646
7.600000 75.748678 46.712394 -0.000000 0.196197 0.177186 -0.148182 -116.531611 269.604538 -0.000000 0.329603 0.482082 -0.383205
7.605000 69.518635 21.455565 -0.000000 0.188420 0.182948 -0.148578 -135.745807 301.512601 -0.000000 0.335434 0.475279 -0.383618
7.610000 65.637568 4.801942 -0.000000 0.180849 0.189253 -0.148800 -156.863806 335.006060 -0.000000 0.340971 0.467936 -0.384031
7.615000 64.187530 -4.344057 -0.000000 0.173495 0.196177 -0.148925 -178.563030 369.472224 -0.000000 0.346232 0.459572 -0.384447
7.620000 65.093378 -6.931270 -0.000000 0.166476 0.203518 -0.149116 -201.421149 403.385201 -0.000000 0.351115 0.452068 -0.384689
7.625000 68.094614 -4.480869 -0.000000 0.159885 0.211178 -0.149188 -223.336125 436.662819 -0.000000 0.355744 0.443488 -0.384995
7.630000 72.839303 1.706571 -0.000000 0.153682 0.219272 -0.149244 -243.718792 468.777632 -0.000000 0.360222 0.434565 -0.385324
7.635000 78.906101 10.416125 -0.000000 0.148062 0.227779 -0.149244 -262.653575 499.167108 -0.000000 0.364161 0.425408 -0.385446
7.640000 85.821839 20.322449 -0.000000 0.142952 0.236478 -0.149161 -279.175421 528.132618 -0.000000 0.367761 0.415710 -0.385545
7.645000 93.057577 30.394801 -0.000000 0.138391 0.245543 -0.149132 -293.405430 555.687285 -0.000000 0.370973 0.405964 -0.385636
7.650000 100.140132 39.599958 -0.000000 0.134303 0.254956 -0.149134 -304.478697 582.557813 -0.000000 0.373798 0.395860 -0.385703
7.655000 106.560464 47.330083 -0.000000 0.131196 0.264605 -0.149030 -313.029116 608.759173 -0.000000 0.376202 0.385544 -0.385692
7.660000 112.025486 52.726895 -0.000000 0.128673 0.274628 -0.148913 -317.233611 635.530774 -0.000000 0.378230 0.374670 -0.385660
7.665000 115.965896 55.771613 -0.000000 0.126637 0.284707 -0.148992 -319.067755 662.062915 -0.000000 0.379823 0.364012 -0.385597
7.670000 118.121167 56.017207 -0.000000 0.125238 0.295008 -0.149089 -317.125364 689.151988 -0.000000 0.380875 0.353049 -0.385589
7.675000 118.099989 53.550709 -0.000000 0.124391 0.305425 -0.149339 -312.226474 716.469789 -0.000000 0.381533 0.342109 -0.385569
7.680000 115.683001 48.359885 -0.000000 0.124334 0.316018 -0.149364 -303.746597 744.343393 -0.000000 0.381723 0.330963 -0.385548
7.685000 110.624436 40.859731 -0.000000 0.124816 0.326791 -0.149459 -292.578280 772.391582 -0.000000 0.381476 0.319981 -0.385448
7.690000 102.879975 31.508652 -0.000000 0.125971 0.337607 -0.149498 -278.745947 800.547615 -0.000000 0.380778 0.309027 -0.385270
7.695000 92.569221 20.972763 -0.000000 0.127552 0.348401 -0.149601 -262.720120 828.535787 -0.000000 0.379832 0.298139 -0.385545
7.700000 80.050087 9.921713 -0.000000 0.129750 0.359254 -0.149768 -244.342022 856.260089 -0.000000 0.377946 0.287506 -0.384995
7.705000 65.862096 -0.955514 -0.000000 0.132550 0.370013 -0.149882 -223.373811 883.546584 -0.000000 0.375828 0.276821 -0.384836
7.710000 50.696066 -10.863286 -0.000000 0.135773 0.380648 -0.150121 -202.423734 909.452563 -0.000000 0.373230 0.266904 -0.384637
7.715000 35.265549 -19.543337 -0.000000 0.139443 0.391171 -0.150371 -178.065257 934.387499 -0.000000 0.370162 0.256698 -0.384449
7.720000 20.281233 -26.522582 -0.000000 0.143666 0.401499 -0.150686 -152.018917 957.379806 -0.000000 0.366629 0.246721 -0.384313
7.725000 6.339033 -31.596905 -0.000000 0.148326 0.411554 -0.151029 -124.341585 977.738258 -0.000000 0.362642 0.236837 -0.384169
7.730000 -6.139554 -34.677569 -0.000000 0.153998 0.421332 -0.151189 -95.468740 994.613630 -0.000000 0.358212 0.227646 -0.384028
7.735000 -16.915576 -35.738828 -0.000000 0.159604 0.430871 -0.151324 -66.965469 1007.110009 -0.000000 0.353386 0.218785 -0.383902
7.740000 -25.945676 -34.732637 -0.000000 0.164718 0.440076 -0.152101 -40.745454 1014.564169 -0.000000 0.348108 0.210338 -0.383750
7.745000 -33.488911 -31.325748 -0.000000 0.171024 0.448764 -0.152491 -13.625325 1016.672268 -0.000000 0.342517 0.202339 -0.383608
7.750000 -39.611534 -25.191472 -0.000000 0.177239 0.456903 -0.153195 11.007485 1012.976169 -0.000000 0.336534 0.194783 -0.383480
7.755000 -44.559977 -15.695984 -0.000000 0.184851 0.464726 -0.153183 36.932545 1003.178697 -0.000000 0.330270 0.187797 -0.383302
7.760000 -48.341635 -2.557843 -0.000000 0.192540 0.471871 -0.154079 60.001540 987.109733 -0.000000 0.323746 0.181319 -0.383141
7.765000 -51.039859 14.497082 -0.000000 0.200308 0.478360 -0.154464 80.385176 964.611824 -0.000000 0.316895 0.175454 -0.383014
7.770000 -52.631980 35.493931 -0.000000 0.208419 0.484470 -0.154848 99.051103 935.403415 -0.000000 0.309838 0.170179 -0.382863
7.775000 -53.007718 59.975148 -0.000000 0.216874 0.490040 -0.155192 115.924830 899.294201 -0.000000 0.302542 0.165589 -0.382699
7.780000 -52.093102 86.950624 -0.000000 0.225534 0.494579 -0.155560 130.573043 856.276452 -0.000000 0.294967 0.161631 -0.382598
7.785000 -49.977119 114.992440 -0.000000 0.234196 0.499078 -0.155989 142.694709 806.497180 -0.000000 0.287290 0.158349 -0.382495
7.790000 -46.933881 142.523967 -0.000000 0.243023 0.502357 -0.156233 152.407050 750.184911 -0.000000 0.279404 0.155731 -0.382436
7.795000 -43.722806 168.111255 -0.000000 0.251337 0.505164 -0.156217 158.488336 688.052294 -0.000000 0.271360 0.153863 -0.382334
7.800000 -40.793763 191.024880 -0.000000 0.259661 0.507071 -0.156363 161.904108 620.627055 -0.000000 0.263242 0.152739 -0.382220
7.805000 -38.615725 211.164819 -0.000000 0.268046 0.508355 -0.156559 162.771773 548.848443 -0.000000 0.255016 0.152373 -0.382125
7.810000 -37.828668 228.925030 -0.000000 0.276187 0.508836 -0.156556 160.374736 474.243277 -0.000000 0.246807 0.152832 -0.381980
